<svg width="24" height="24" viewBox="0 0 24 24" fill="none" xmlns="http://www.w3.org/2000/svg">
<path d="M12.0001 3.6001L12.9406 3.65292L13.8693 3.8107L14.7744 4.07148L15.6447 4.43196L16.4692 4.88761L17.2374 5.43271L17.9398 6.0604L18.5675 6.76278L19.1126 7.53103L19.5682 8.35547L19.9287 9.22575L20.1895 10.1309L20.3473 11.0596L20.4001 12.0001L20.3473 12.9406L20.1895 13.8693L19.9287 14.7744L19.5682 15.6447L19.1126 16.4692L18.5675 17.2374L17.9398 17.9398L17.2374 18.5675L16.4692 19.1126L15.6447 19.5682L14.7744 19.9287L13.8693 20.1895L12.9406 20.3473L12.0001 20.4001L11.0596 20.3473L10.1309 20.1895L9.22575 19.9287L8.35547 19.5682L7.53103 19.1126L6.76278 18.5675L6.0604 17.9398L5.43271 17.2374L4.88761 16.4692L4.43196 15.6447L4.07148 14.7744L3.8107 13.8693L3.65292 12.9406L3.6001 12.0001L3.65292 11.0596L3.8107 10.1309L4.07148 9.22575L4.43196 8.35547L4.88761 7.53103L5.43271 6.76278L6.0604 6.0604L6.76278 5.43271L7.53103 4.88761L8.35547 4.43196L9.22575 4.07148L10.1309 3.8107L11.0596 3.65292L12.0001 3.6001Z" fill="#C2CCDE" fill-opacity="0.25"/>
<path d="M12.0001 3.6001L12.0562 2.60167C12.0188 2.59957 11.9814 2.59957 11.944 2.60167L12.0001 3.6001ZM12.9406 3.65292L13.1081 2.66704C13.0712 2.66078 13.034 2.65659 12.9967 2.65449L12.9406 3.65292ZM13.8693 3.8107L14.1461 2.84979C14.1102 2.83943 14.0737 2.8311 14.0368 2.82483L13.8693 3.8107ZM14.7744 4.07148L15.1571 3.1476C15.1226 3.13328 15.0872 3.12092 15.0513 3.11056L14.7744 4.07148ZM15.6447 4.43196L16.1284 3.55674C16.0957 3.53864 16.062 3.5224 16.0274 3.50808L15.6447 4.43196ZM16.4692 4.88761L17.0478 4.07205C17.0173 4.05041 16.9856 4.03049 16.9529 4.01239L16.4692 4.88761ZM17.2374 5.43271L17.9038 4.68707C17.8759 4.66214 17.8466 4.6388 17.8161 4.61715L17.2374 5.43271ZM17.9398 6.0604L18.6854 5.39405C18.6605 5.36616 18.634 5.33969 18.6061 5.31476L17.9398 6.0604ZM18.5675 6.76278L19.383 6.18411C19.3614 6.1536 19.3381 6.12433 19.3131 6.09644L18.5675 6.76278ZM19.1126 7.53103L19.9878 7.04731C19.9697 7.01457 19.9498 6.98287 19.9281 6.95236L19.1126 7.53103ZM19.5682 8.35547L20.4921 7.97279C20.4778 7.93823 20.4616 7.9045 20.4435 7.87176L19.5682 8.35547ZM19.9287 9.22575L20.8896 8.94892C20.8793 8.91297 20.8669 8.87763 20.8526 8.84307L19.9287 9.22575ZM20.1895 10.1309L21.1754 9.96342C21.1691 9.92653 21.1608 9.89003 21.1504 9.85409L20.1895 10.1309ZM20.3473 11.0596L21.3457 11.0035C21.3436 10.9662 21.3394 10.929 21.3331 10.8921L20.3473 11.0596ZM20.4001 12.0001L21.3985 12.0562C21.4006 12.0188 21.4006 11.9814 21.3985 11.944L20.4001 12.0001ZM20.3473 12.9406L21.3331 13.1081C21.3394 13.0712 21.3436 13.034 21.3457 12.9967L20.3473 12.9406ZM20.1895 13.8693L21.1504 14.1461C21.1608 14.1102 21.1691 14.0737 21.1754 14.0368L20.1895 13.8693ZM19.9287 14.7744L20.8526 15.1571C20.8669 15.1226 20.8793 15.0872 20.8896 15.0513L19.9287 14.7744ZM19.5682 15.6447L20.4435 16.1284C20.4616 16.0957 20.4778 16.062 20.4921 16.0274L19.5682 15.6447ZM19.1126 16.4692L19.9281 17.0478C19.9498 17.0173 19.9697 16.9856 19.9878 16.9529L19.1126 16.4692ZM18.5675 17.2374L19.3131 17.9038C19.3381 17.8759 19.3614 17.8466 19.383 17.8161L18.5675 17.2374ZM17.9398 17.9398L18.6061 18.6854C18.634 18.6605 18.6605 18.634 18.6854 18.6061L17.9398 17.9398ZM17.2374 18.5675L17.8161 19.383C17.8466 19.3614 17.8759 19.3381 17.9038 19.3131L17.2374 18.5675ZM16.4692 19.1126L16.9529 19.9878C16.9856 19.9697 17.0173 19.9498 17.0478 19.9281L16.4692 19.1126ZM15.6447 19.5682L16.0274 20.4921C16.062 20.4778 16.0957 20.4616 16.1284 20.4435L15.6447 19.5682ZM14.7744 19.9287L15.0513 20.8896C15.0872 20.8793 15.1226 20.8669 15.1571 20.8526L14.7744 19.9287ZM13.8693 20.1895L14.0368 21.1754C14.0737 21.1691 14.1102 21.1608 14.1461 21.1504L13.8693 20.1895ZM12.9406 20.3473L12.9967 21.3457C13.034 21.3436 13.0712 21.3394 13.1081 21.3331L12.9406 20.3473ZM12.0001 20.4001L11.944 21.3985C11.9814 21.4006 12.0188 21.4006 12.0562 21.3985L12.0001 20.4001ZM11.0596 20.3473L10.8921 21.3331C10.929 21.3394 10.9662 21.3436 11.0035 21.3457L11.0596 20.3473ZM10.1309 20.1895L9.85409 21.1504C9.89003 21.1608 9.92653 21.1691 9.96342 21.1754L10.1309 20.1895ZM9.22575 19.9287L8.84307 20.8526C8.87763 20.8669 8.91297 20.8793 8.94892 20.8896L9.22575 19.9287ZM8.35547 19.5682L7.87176 20.4435C7.9045 20.4616 7.93823 20.4778 7.97279 20.4921L8.35547 19.5682ZM7.53103 19.1126L6.95236 19.9281C6.98287 19.9498 7.01457 19.9697 7.04731 19.9878L7.53103 19.1126ZM6.76278 18.5675L6.09644 19.3131C6.12433 19.3381 6.1536 19.3614 6.18411 19.383L6.76278 18.5675ZM6.0604 17.9398L5.31476 18.6061C5.33969 18.634 5.36616 18.6605 5.39405 18.6854L6.0604 17.9398ZM5.43271 17.2374L4.61715 17.8161C4.6388 17.8466 4.66214 17.8759 4.68707 17.9038L5.43271 17.2374ZM4.88761 16.4692L4.01239 16.9529C4.03049 16.9856 4.05041 17.0173 4.07205 17.0478L4.88761 16.4692ZM4.43196 15.6447L3.50808 16.0274C3.5224 16.062 3.53864 16.0957 3.55674 16.1284L4.43196 15.6447ZM4.07148 14.7744L3.11056 15.0513C3.12092 15.0872 3.13328 15.1226 3.1476 15.1571L4.07148 14.7744ZM3.8107 13.8693L2.82483 14.0368C2.8311 14.0737 2.83943 14.1102 2.84979 14.1461L3.8107 13.8693ZM3.65292 12.9406L2.65449 12.9967C2.65659 13.034 2.66078 13.0712 2.66704 13.1081L3.65292 12.9406ZM3.6001 12.0001L2.60167 11.944C2.59957 11.9814 2.59957 12.0188 2.60167 12.0562L3.6001 12.0001ZM3.65292 11.0596L2.66704 10.8921C2.66078 10.929 2.65659 10.9662 2.65449 11.0035L3.65292 11.0596ZM3.8107 10.1309L2.84979 9.85409C2.83943 9.89003 2.8311 9.92653 2.82483 9.96342L3.8107 10.1309ZM4.07148 9.22575L3.1476 8.84307C3.13328 8.87763 3.12092 8.91297 3.11056 8.94892L4.07148 9.22575ZM4.43196 8.35547L3.55674 7.87176C3.53864 7.9045 3.5224 7.93823 3.50808 7.97279L4.43196 8.35547ZM4.88761 7.53103L4.07205 6.95236C4.05041 6.98287 4.03049 7.01457 4.01239 7.04731L4.88761 7.53103ZM5.43271 6.76278L4.68707 6.09644C4.66214 6.12433 4.6388 6.1536 4.61715 6.18411L5.43271 6.76278ZM6.0604 6.0604L5.39405 5.31476C5.36616 5.33969 5.33969 5.36616 5.31476 5.39405L6.0604 6.0604ZM6.76278 5.43271L6.18411 4.61715C6.1536 4.6388 6.12433 4.66214 6.09644 4.68707L6.76278 5.43271ZM7.53103 4.88761L7.04731 4.01239C7.01457 4.03049 6.98287 4.05041 6.95236 4.07205L7.53103 4.88761ZM8.35547 4.43196L7.97279 3.50808C7.93823 3.5224 7.9045 3.53864 7.87176 3.55674L8.35547 4.43196ZM9.22575 4.07148L8.94892 3.11056C8.91297 3.12092 8.87763 3.13328 8.84307 3.1476L9.22575 4.07148ZM10.1309 3.8107L9.96342 2.82483C9.92653 2.8311 9.89003 2.83943 9.85409 2.84979L10.1309 3.8107ZM11.0596 3.65292L11.0035 2.65449C10.9662 2.65659 10.929 2.66078 10.8921 2.66704L11.0596 3.65292ZM11.944 4.59852L12.8845 4.65134L12.9967 2.65449L12.0562 2.60167L11.944 4.59852ZM12.7731 4.63879L13.7018 4.79657L14.0368 2.82483L13.1081 2.66704L12.7731 4.63879ZM13.5924 4.77162L14.4976 5.0324L15.0513 3.11056L14.1461 2.84979L13.5924 4.77162ZM14.3918 4.99536L15.262 5.35584L16.0274 3.50808L15.1571 3.1476L14.3918 4.99536ZM15.161 5.30718L15.9854 5.76284L16.9529 4.01239L16.1284 3.55674L15.161 5.30718ZM15.8905 5.70318L16.6587 6.24827L17.8161 4.61715L17.0478 4.07205L15.8905 5.70318ZM16.5711 6.17836L17.2734 6.80604L18.6061 5.31476L17.9038 4.68707L16.5711 6.17836ZM17.1942 6.72675L17.8218 7.42913L19.3131 6.09644L18.6854 5.39405L17.1942 6.72675ZM17.7519 7.34145L18.297 8.1097L19.9281 6.95236L19.383 6.18411L17.7519 7.34145ZM18.2374 8.01475L18.693 8.83919L20.4435 7.87176L19.9878 7.04731L18.2374 8.01475ZM18.6444 8.73816L19.0048 9.60844L20.8526 8.84307L20.4921 7.97279L18.6444 8.73816ZM18.9678 9.50259L19.2286 10.4078L21.1504 9.85409L20.8896 8.94892L18.9678 9.50259ZM19.2036 10.2984L19.3614 11.2271L21.3331 10.8921L21.1754 9.96342L19.2036 10.2984ZM19.3489 11.1157L19.4017 12.0562L21.3985 11.944L21.3457 11.0035L19.3489 11.1157ZM19.4017 11.944L19.3489 12.8845L21.3457 12.9967L21.3985 12.0562L19.4017 11.944ZM19.3614 12.7731L19.2036 13.7018L21.1754 14.0368L21.3331 13.1081L19.3614 12.7731ZM19.2286 13.5924L18.9678 14.4976L20.8896 15.0513L21.1504 14.1461L19.2286 13.5924ZM19.0048 14.3918L18.6444 15.262L20.4921 16.0274L20.8526 15.1571L19.0048 14.3918ZM18.693 15.161L18.2374 15.9854L19.9878 16.9529L20.4435 16.1284L18.693 15.161ZM18.297 15.8905L17.7519 16.6587L19.383 17.8161L19.9281 17.0478L18.297 15.8905ZM17.8218 16.5711L17.1942 17.2734L18.6854 18.6061L19.3131 17.9038L17.8218 16.5711ZM17.2734 17.1942L16.5711 17.8218L17.9038 19.3131L18.6061 18.6854L17.2734 17.1942ZM16.6587 17.7519L15.8905 18.297L17.0478 19.9281L17.8161 19.383L16.6587 17.7519ZM15.9854 18.2374L15.161 18.693L16.1284 20.4435L16.9529 19.9878L15.9854 18.2374ZM15.262 18.6444L14.3918 19.0048L15.1571 20.8526L16.0274 20.4921L15.262 18.6444ZM14.4976 18.9678L13.5924 19.2286L14.1461 21.1504L15.0513 20.8896L14.4976 18.9678ZM13.7018 19.2036L12.7731 19.3614L13.1081 21.3331L14.0368 21.1754L13.7018 19.2036ZM12.8845 19.3489L11.944 19.4017L12.0562 21.3985L12.9967 21.3457L12.8845 19.3489ZM12.0562 19.4017L11.1157 19.3489L11.0035 21.3457L11.944 21.3985L12.0562 19.4017ZM11.2271 19.3614L10.2984 19.2036L9.96342 21.1754L10.8921 21.3331L11.2271 19.3614ZM10.4078 19.2286L9.50259 18.9678L8.94892 20.8896L9.85409 21.1504L10.4078 19.2286ZM9.60844 19.0048L8.73816 18.6444L7.97279 20.4921L8.84307 20.8526L9.60844 19.0048ZM8.83919 18.693L8.01475 18.2374L7.04731 19.9878L7.87176 20.4435L8.83919 18.693ZM8.1097 18.297L7.34145 17.7519L6.18411 19.383L6.95236 19.9281L8.1097 18.297ZM7.42913 17.8218L6.72675 17.1942L5.39405 18.6854L6.09644 19.3131L7.42913 17.8218ZM6.80604 17.2734L6.17836 16.5711L4.68707 17.9038L5.31476 18.6061L6.80604 17.2734ZM6.24827 16.6587L5.70318 15.8905L4.07205 17.0478L4.61715 17.8161L6.24827 16.6587ZM5.76284 15.9854L5.30718 15.161L3.55674 16.1284L4.01239 16.9529L5.76284 15.9854ZM5.35584 15.262L4.99536 14.3918L3.1476 15.1571L3.50808 16.0274L5.35584 15.262ZM5.0324 14.4976L4.77162 13.5924L2.84979 14.1461L3.11056 15.0513L5.0324 14.4976ZM4.79657 13.7018L4.63879 12.7731L2.66704 13.1081L2.82483 14.0368L4.79657 13.7018ZM4.65134 12.8845L4.59852 11.944L2.60167 12.0562L2.65449 12.9967L4.65134 12.8845ZM4.59852 12.0562L4.65134 11.1157L2.65449 11.0035L2.60167 11.944L4.59852 12.0562ZM4.63879 11.2271L4.79657 10.2984L2.82483 9.96342L2.66704 10.8921L4.63879 11.2271ZM4.77162 10.4078L5.0324 9.50259L3.11056 8.94892L2.84979 9.85409L4.77162 10.4078ZM4.99536 9.60844L5.35584 8.73816L3.50808 7.97279L3.1476 8.84307L4.99536 9.60844ZM5.30718 8.83919L5.76284 8.01475L4.01239 7.04731L3.55674 7.87176L5.30718 8.83919ZM5.70318 8.1097L6.24827 7.34145L4.61715 6.18411L4.07205 6.95236L5.70318 8.1097ZM6.17836 7.42913L6.80604 6.72675L5.31476 5.39405L4.68707 6.09644L6.17836 7.42913ZM6.72675 6.80604L7.42913 6.17836L6.09644 4.68707L5.39405 5.31476L6.72675 6.80604ZM7.34145 6.24827L8.1097 5.70318L6.95236 4.07205L6.18411 4.61715L7.34145 6.24827ZM8.01475 5.76284L8.83919 5.30718L7.87176 3.55674L7.04731 4.01239L8.01475 5.76284ZM8.73816 5.35584L9.60844 4.99536L8.84307 3.1476L7.97279 3.50808L8.73816 5.35584ZM9.50259 5.0324L10.4078 4.77162L9.85409 2.84979L8.94892 3.11056L9.50259 5.0324ZM10.2984 4.79657L11.2271 4.63879L10.8921 2.66704L9.96342 2.82483L10.2984 4.79657ZM11.1157 4.65134L12.0562 4.59852L11.944 2.60167L11.0035 2.65449L11.1157 4.65134Z" fill="#43A048"/>
<path d="M7.56911 12.0545L9.8192 14.3259C10.2079 14.7183 10.838 14.7183 11.2267 14.3259L16.4307 9.07267" stroke="#43A048" stroke-width="2" stroke-linecap="round" stroke-linejoin="round"/>
</svg>
