<svg width="16" height="13" viewBox="0 0 16 13" fill="none" xmlns="http://www.w3.org/2000/svg">
<path fill-rule="evenodd" clip-rule="evenodd" d="M4.79008 2.7026L4.94999 2.31423C5.25856 1.5648 5.9889 1.07568 6.79937 1.07568L9.41059 1.07568C10.2211 1.07568 10.9514 1.5648 11.26 2.31423L11.4199 2.7026H12C13.6569 2.7026 15 4.04575 15 5.7026L15 8.99918C15 10.656 13.6569 11.9992 12 11.9992L4 11.9992C2.34315 11.9992 1 10.656 1 8.99918L1 5.7026C1 4.04575 2.34315 2.7026 4 2.7026L4.79008 2.7026Z" fill="#C2CCDE" fill-opacity="0.25"/>
<path d="M4.79008 2.7026V3.2026H5.12494L5.25243 2.89296L4.79008 2.7026ZM4.94999 2.31423L5.41234 2.50459L4.94999 2.31423ZM11.26 2.31423L11.7223 2.12386V2.12386L11.26 2.31423ZM11.4199 2.7026L10.9575 2.89296L11.085 3.2026H11.4199V2.7026ZM5.25243 2.89296L5.41234 2.50459L4.48765 2.12386L4.32774 2.51224L5.25243 2.89296ZM5.41234 2.50459C5.64376 1.94252 6.19152 1.57568 6.79937 1.57568V0.575684C5.78628 0.575684 4.87336 1.18708 4.48765 2.12386L5.41234 2.50459ZM6.79937 1.57568L9.41059 1.57568V0.575684L6.79937 0.575684V1.57568ZM9.41059 1.57568C10.0184 1.57568 10.5662 1.94252 10.7976 2.50459L11.7223 2.12386C11.3366 1.18708 10.4237 0.575684 9.41059 0.575684V1.57568ZM10.7976 2.50459L10.9575 2.89296L11.8822 2.51224L11.7223 2.12386L10.7976 2.50459ZM11.4199 3.2026H12V2.2026H11.4199V3.2026ZM12 3.2026C13.3807 3.2026 14.5 4.32189 14.5 5.7026L15.5 5.7026C15.5 3.7696 13.933 2.2026 12 2.2026V3.2026ZM14.5 5.7026L14.5 8.99918L15.5 8.99918L15.5 5.7026L14.5 5.7026ZM14.5 8.99918C14.5 10.3799 13.3807 11.4992 12 11.4992V12.4992C13.933 12.4992 15.5 10.9322 15.5 8.99918L14.5 8.99918ZM12 11.4992L4 11.4992V12.4992L12 12.4992V11.4992ZM4 11.4992C2.61929 11.4992 1.5 10.3799 1.5 8.99918H0.5C0.5 10.9322 2.067 12.4992 4 12.4992V11.4992ZM1.5 8.99918L1.5 5.7026H0.5L0.5 8.99918H1.5ZM1.5 5.7026C1.5 4.32189 2.61929 3.2026 4 3.2026L4 2.2026C2.067 2.2026 0.5 3.7696 0.5 5.7026H1.5ZM4 3.2026H4.79008V2.2026L4 2.2026L4 3.2026Z" fill="white"/>
<path d="M6.56653 4.63414C7.46177 4.15363 8.53823 4.15363 9.43347 4.63414L9.59762 4.72225C10.4803 5.19603 11.0311 6.11673 11.0311 7.11855V7.11855C11.0311 8.12037 10.4803 9.04107 9.59762 9.51485L9.43347 9.60295C8.53823 10.0835 7.46177 10.0835 6.56653 9.60295L6.40238 9.51485C5.51968 9.04107 4.96891 8.12037 4.96891 7.11855V7.11855C4.96891 6.11673 5.51967 5.19603 6.40238 4.72225L6.56653 4.63414Z" stroke="white" stroke-linecap="round" stroke-linejoin="round"/>
</svg>
