<svg width="24" height="24" viewBox="0 0 24 24" fill="none" xmlns="http://www.w3.org/2000/svg">
<path d="M19.036 20.3247L15.2175 16.5051C14.8663 16.1538 14.8663 15.5843 15.2176 15.2331C15.5689 14.8817 16.1385 14.8818 16.4898 15.2332L20.3083 19.0527C20.6595 19.404 20.6595 19.9735 20.3082 20.3247C19.9569 20.6761 19.3873 20.676 19.036 20.3247Z" fill="#C2CCDE" fill-opacity="0.25"/>
<path d="M4.67902 8.72068C5.20754 6.74821 6.74821 5.20754 8.72068 4.67902C10.6931 4.1505 12.7977 4.71443 14.2417 6.15837C15.6856 7.60232 16.2496 9.70691 15.721 11.6794C15.1925 13.6518 13.6518 15.1925 11.6794 15.721C9.70691 16.2496 7.60232 15.6856 6.15837 14.2417C4.71443 12.7977 4.1505 10.6931 4.67902 8.72068Z" fill="#C2CCDE" fill-opacity="0.25"/>
<path d="M14.2335 14.2495L15.2173 15.2333M15.2175 16.5051L19.036 20.3247C19.3873 20.676 19.9569 20.6761 20.3082 20.3247C20.6595 19.9735 20.6595 19.404 20.3083 19.0527L16.4898 15.2332C16.1385 14.8818 15.5689 14.8817 15.2176 15.2331C14.8663 15.5843 14.8663 16.1538 15.2175 16.5051ZM6.15837 14.2417C4.71443 12.7977 4.1505 10.6931 4.67902 8.72068C5.20754 6.74821 6.74821 5.20754 8.72068 4.67902C10.6931 4.1505 12.7977 4.71443 14.2417 6.15837C15.6856 7.60232 16.2496 9.70691 15.721 11.6794C15.1925 13.6518 13.6518 15.1925 11.6794 15.721C9.70691 16.2496 7.60232 15.6856 6.15837 14.2417Z" stroke="#414141" stroke-linecap="round" stroke-linejoin="round"/>
</svg>
